<?xml version="1.0" standalone="no"?>
<!DOCTYPE svg PUBLIC "-//W3C//DTD SVG 20010904//EN"
 "http://www.w3.org/TR/2001/REC-SVG-20010904/DTD/svg10.dtd">
<svg version="1.0" xmlns="http://www.w3.org/2000/svg"
 width="1024.000000pt" height="1024.000000pt" viewBox="0 0 1024.000000 1024.000000"
 preserveAspectRatio="xMidYMid meet">
<metadata>
Created by potrace 1.11, written by Peter Selinger 2001-2013
</metadata>
<g transform="translate(0.000000,1024.000000) scale(0.100000,-0.100000)"
fill="#000000" stroke="none">
<path d="M5705 9623 c-298 -23 -618 -97 -685 -158 -13 -12 -27 -13 -85 -3
-117 18 -444 5 -616 -25 -600 -105 -1192 -380 -1638 -761 -518 -441 -832
-1004 -951 -1702 -26 -153 -28 -404 -4 -429 15 -15 12 -20 -39 -66 -106 -94
-251 -287 -322 -428 -88 -176 -143 -380 -152 -571 -15 -320 78 -587 281 -807
l64 -69 -18 -100 c-66 -365 -213 -672 -480 -1006 -49 -61 -165 -191 -257 -290
-92 -99 -178 -193 -190 -210 -38 -52 -26 -110 30 -144 27 -16 51 -19 167 -19
149 0 221 13 403 72 60 19 111 32 114 30 5 -6 -181 -165 -362 -309 -148 -118
-175 -154 -160 -214 19 -74 97 -102 301 -111 106 -5 284 7 353 24 l25 6 -22
-28 c-48 -61 -19 -139 75 -201 161 -107 447 -160 666 -124 52 8 60 7 78 -11
37 -37 136 -71 250 -84 126 -15 363 36 487 106 28 16 52 27 52 23 0 -3 -15
-25 -34 -48 -66 -80 -72 -132 -23 -181 91 -91 355 -93 530 -3 37 18 41 18 114
2 59 -13 104 -15 207 -11 72 3 143 9 159 13 24 6 15 -10 -88 -155 -310 -433
-841 -1248 -1024 -1573 l-32 -58 85 0 85 0 97 158 c306 495 699 1096 943 1441
168 237 322 444 327 438 2 -2 -5 -46 -15 -98 -56 -272 -82 -559 -88 -989 -5
-357 4 -621 28 -847 l12 -103 76 0 77 0 -13 138 c-27 308 -36 572 -30 897 5
294 27 638 41 652 3 3 13 -14 23 -38 56 -143 140 -268 262 -390 356 -356 865
-457 1275 -253 99 50 152 89 229 167 l69 70 -6 -44 c-3 -24 -15 -117 -26 -205
-26 -211 -79 -505 -136 -761 -25 -113 -48 -212 -51 -220 -4 -11 9 -13 78 -11
l83 3 12 55 c74 313 140 689 174 993 23 199 43 607 34 679 -4 26 -4 48 0 48 7
0 195 -374 301 -600 101 -216 252 -557 355 -800 45 -107 100 -237 122 -287
l41 -93 74 0 c68 0 74 2 68 18 -3 9 -34 89 -67 177 -135 357 -365 868 -620
1379 -95 190 -134 276 -121 271 123 -51 307 -80 371 -57 27 9 41 5 129 -39
144 -73 226 -91 406 -93 145 -1 149 0 168 23 37 45 26 85 -51 186 -38 50 -70
94 -70 97 0 3 44 -11 98 -33 147 -57 281 -89 412 -97 217 -13 343 13 369 77
21 49 0 83 -88 149 -77 56 -191 159 -191 172 0 4 91 10 203 13 212 6 320 24
409 67 l41 20 96 -31 c98 -31 242 -48 295 -35 42 10 66 41 66 84 0 33 -9 50
-64 114 -180 210 -303 397 -369 556 -122 297 -197 819 -232 1618 l-16 346 62
65 c168 180 281 379 334 588 84 329 44 656 -120 1001 -108 228 -274 439 -421
535 l-64 41 0 74 c0 128 -68 430 -149 665 -237 685 -632 1173 -1151 1421 -330
157 -1051 283 -1445 251z m300 -153 c266 -19 618 -81 831 -145 641 -195 1099
-720 1360 -1560 31 -99 104 -428 104 -467 0 -14 -6 -13 -56 3 -79 26 -179 42
-224 36 -45 -6 -51 1 -89 98 -35 88 -146 307 -202 401 -50 84 -68 99 -100 89
-39 -13 -32 -47 30 -171 82 -164 123 -262 164 -395 149 -481 172 -742 115
-1254 -28 -245 -30 -569 -5 -727 27 -172 61 -316 136 -578 38 -135 74 -272 80
-304 16 -87 13 -281 -4 -375 -41 -214 -164 -478 -395 -846 -83 -132 -167 -273
-188 -312 -20 -40 -40 -73 -44 -73 -5 0 -8 103 -8 228 0 245 -1 252 -51 252
-50 0 -54 -33 -54 -450 0 -255 5 -399 13 -449 7 -40 10 -76 7 -79 -2 -3 -49
39 -103 94 -82 82 -106 114 -141 184 -23 47 -48 117 -56 155 -40 190 9 559 91
687 37 58 41 79 19 102 -11 10 -15 37 -15 93 -1 157 -33 274 -137 498 -79 171
-93 223 -93 341 0 150 26 250 156 606 160 438 179 529 194 948 5 146 15 299
21 340 20 139 -4 346 -63 530 -118 369 -379 672 -692 803 -87 37 -200 69 -284
81 -45 7 -289 116 -427 191 -125 68 -279 172 -382 258 -192 162 -383 393 -472
571 -49 97 -50 103 -44 163 6 68 -11 113 -45 113 -34 0 -43 -18 -76 -156 -108
-438 -268 -706 -651 -1090 -219 -220 -605 -553 -850 -734 -33 -25 -158 -121
-278 -214 l-219 -169 5 -36 c3 -27 -3 -49 -24 -86 -74 -133 -142 -359 -155
-510 -8 -105 9 -243 45 -352 16 -49 65 -165 110 -259 94 -200 111 -255 118
-389 6 -111 -3 -146 -97 -390 -88 -229 -124 -443 -101 -595 7 -41 30 -131 52
-200 23 -69 42 -147 44 -175 1 -27 7 -63 13 -78 18 -43 14 -205 -7 -315 -44
-228 -130 -417 -258 -569 -44 -53 -130 -129 -137 -122 -2 2 5 51 15 109 30
175 25 416 -17 715 -16 118 -33 149 -75 138 -30 -8 -35 -31 -27 -135 9 -137 9
-468 0 -468 -13 0 -106 160 -168 286 -161 331 -215 722 -150 1079 23 123 38
179 107 405 78 251 98 341 105 470 9 141 -5 215 -76 431 -90 272 -105 353
-104 539 1 273 49 556 146 858 56 175 56 194 6 200 -14 2 -30 -3 -35 -10 -35
-41 -145 -359 -189 -540 -29 -118 -37 -138 -60 -138 -11 0 -59 -20 -138 -58
-33 -16 88 566 168 810 243 739 812 1323 1631 1674 416 178 906 277 1281 258
124 -6 132 -6 150 14 36 39 354 105 581 121 160 12 214 12 368 1z m-897 -950
c76 -101 298 -322 397 -397 120 -91 240 -166 360 -228 59 -30 101 -57 94 -59
-8 -2 -45 -14 -84 -26 -179 -57 -375 -196 -375 -267 0 -69 49 -70 138 -2 267
202 642 235 945 83 110 -56 184 -110 272 -199 174 -175 296 -419 341 -678 25
-143 15 -339 -24 -487 -44 -163 -95 -308 -153 -429 -27 -57 -49 -113 -49 -125
0 -28 18 -46 47 -46 27 0 58 40 123 159 51 93 57 87 40 -33 -20 -139 -57 -268
-160 -551 -158 -435 -186 -548 -177 -730 6 -127 22 -180 115 -380 93 -202 107
-255 107 -415 0 -74 -3 -147 -7 -161 -6 -20 -41 -48 -133 -108 -110 -73 -184
-111 -505 -264 -209 -99 -235 -146 -261 -470 -13 -169 -9 -210 23 -246 13 -14
61 -102 106 -196 l83 -170 11 -222 c12 -243 6 -287 -47 -393 -35 -70 -136
-200 -191 -248 -57 -50 -222 -134 -309 -157 -138 -37 -366 -30 -509 17 -360
118 -616 384 -742 773 -41 127 -41 146 1 323 29 120 44 145 163 275 l44 48 -6
157 c-12 285 -23 336 -87 385 -52 38 -87 50 -408 137 -629 171 -931 295 -1176
483 l-70 53 -13 80 c-7 43 -31 131 -52 195 -89 267 -80 385 64 771 77 210 91
277 83 408 -9 131 -35 218 -127 410 -127 268 -150 344 -150 510 0 167 41 321
136 515 67 135 109 193 162 223 l41 22 -30 -66 c-139 -310 -191 -690 -133
-971 58 -282 227 -489 521 -637 40 -20 82 -36 93 -36 24 0 53 41 44 64 -3 9
-43 40 -88 70 -150 97 -305 263 -366 390 -59 124 -73 201 -74 396 0 144 3 195
22 289 56 280 176 534 334 706 72 79 209 188 288 229 174 91 362 115 507 67
60 -20 77 -22 98 -13 58 27 19 93 -83 140 -47 22 -76 27 -170 32 l-112 5 150
139 c219 204 415 427 537 613 61 94 161 297 192 393 12 36 24 71 27 79 3 9 25
-19 55 -70 28 -46 76 -118 107 -159z m3047 -1337 c147 -47 285 -127 385 -225
95 -91 206 -268 283 -450 80 -185 117 -357 117 -533 -1 -329 -112 -589 -365
-854 -87 -91 -321 -296 -338 -296 -13 0 -34 64 -83 254 -46 176 -72 340 -86
541 -16 213 -14 346 5 462 36 209 50 388 44 563 -6 180 -20 275 -63 433 -42
155 -43 142 7 131 24 -5 67 -17 94 -26z m-6199 -710 c-15 -91 -18 -244 -7
-343 11 -94 18 -116 66 -215 90 -183 135 -340 135 -474 0 -99 -35 -259 -125
-566 -40 -137 -79 -274 -85 -302 -7 -29 -16 -53 -20 -53 -5 0 -46 28 -92 61
-256 189 -383 359 -444 595 -22 83 -26 121 -26 239 -1 330 133 656 375 911 78
83 199 184 220 184 6 0 7 -15 3 -37z m6582 -1861 c7 -609 78 -1209 179 -1527
65 -205 163 -380 322 -578 39 -48 67 -87 62 -87 -39 0 -397 111 -516 160 -83
34 -160 64 -173 67 -46 11 -71 -47 -34 -80 10 -9 79 -46 155 -82 75 -36 139
-70 141 -74 9 -14 -111 -25 -309 -26 -268 -3 -253 -1 -286 -34 -62 -63 -30
-149 110 -290 l94 -94 -104 7 c-202 14 -439 72 -627 155 -69 31 -75 31 -98 16
-36 -24 -32 -75 15 -171 22 -43 53 -99 70 -124 17 -25 31 -48 31 -51 0 -10
-144 11 -214 32 -138 41 -327 151 -410 238 -35 36 -80 42 -96 12 -16 -31 -13
-37 46 -106 l56 -66 -39 7 c-67 11 -314 103 -343 127 -9 6 -67 107 -129 222
-62 116 -124 224 -137 242 l-24 31 20 149 c23 172 37 240 56 270 7 11 64 46
126 76 62 30 178 87 258 125 80 39 169 87 199 107 29 19 55 34 57 33 1 -2 -4
-46 -12 -98 -40 -267 1 -500 120 -678 99 -149 316 -315 414 -316 37 -1 48 4
64 26 l21 26 -27 104 c-14 56 -29 141 -32 188 -5 83 -5 87 31 159 53 109 131
239 285 476 75 116 158 246 183 290 124 216 221 465 253 645 22 129 15 347
-15 484 -13 54 -19 102 -14 106 4 4 24 13 43 20 51 20 172 88 195 111 11 10
22 19 25 19 3 0 6 -111 8 -248z m-6752 -175 c27 -14 66 -28 86 -32 l37 -7 -5
-91 c-3 -51 -7 -101 -9 -111 -2 -10 1 -85 6 -165 18 -272 82 -514 195 -738 75
-149 155 -271 225 -344 l51 -54 -11 -70 c-6 -38 -23 -111 -37 -162 -31 -109
-28 -137 21 -160 32 -15 37 -15 80 2 177 67 379 279 484 506 64 140 131 385
131 482 0 66 7 70 54 33 22 -19 77 -57 122 -84 238 -147 497 -245 1069 -402
143 -39 276 -79 295 -88 39 -19 33 1 71 -239 l22 -143 -65 -72 c-88 -100 -237
-281 -342 -415 -82 -106 -90 -114 -139 -128 -86 -24 -387 -61 -387 -47 0 3 10
16 21 28 28 30 19 71 -16 80 -19 5 -39 -4 -82 -32 -128 -85 -391 -147 -500
-118 -21 6 -19 9 26 68 66 83 117 178 136 253 14 55 14 66 1 97 -16 38 -48 53
-91 42 -13 -3 -53 -32 -87 -62 -146 -130 -289 -203 -462 -233 -73 -13 -246
-14 -246 -2 0 5 24 17 53 26 28 10 89 35 133 56 88 41 108 67 77 101 -22 24
-35 23 -128 -12 -234 -88 -545 -110 -761 -55 -57 15 -204 79 -204 89 0 2 35
24 78 47 209 114 268 186 209 255 -30 35 -73 34 -214 -5 -140 -38 -235 -57
-355 -70 -104 -12 -254 -13 -303 -2 -29 6 -27 8 95 106 156 124 390 356 458
454 55 78 64 117 36 145 -22 23 -48 20 -83 -9 -48 -41 -231 -97 -476 -146
-114 -22 -265 -39 -265 -29 0 3 30 35 66 70 172 168 394 440 510 622 135 214
246 488 280 693 8 55 18 110 20 123 l5 23 32 -25 c17 -13 55 -35 83 -49z"/>
<path d="M6261 8541 c-43 -43 -17 -77 66 -86 267 -30 455 -113 630 -279 76
-72 103 -80 128 -42 21 32 11 50 -69 134 -171 179 -382 277 -622 289 -104 5
-112 5 -133 -16z"/>
<path d="M3780 8215 c-161 -40 -306 -127 -450 -274 -172 -173 -216 -259 -145
-277 22 -6 40 8 143 113 179 183 311 273 484 331 48 16 95 35 103 42 35 29 2
81 -51 79 -16 0 -54 -7 -84 -14z"/>
<path d="M6000 7289 c-42 -9 -106 -17 -141 -18 -8 -1 -24 -8 -35 -17 -18 -15
-18 -15 3 -5 12 6 30 11 40 10 22 -1 -35 -21 -59 -21 -23 1 -88 -74 -126 -145
l-31 -58 47 3 c59 4 141 -36 185 -90 24 -30 31 -50 36 -107 4 -38 4 -68 0 -66
-5 4 -29 -38 -29 -52 0 -3 8 1 18 8 9 7 7 2 -6 -12 -12 -14 -20 -28 -17 -31 3
-2 -2 -5 -10 -5 -13 0 -12 4 2 20 10 11 -3 4 -29 -16 -57 -43 -126 -60 -186
-46 -24 5 -47 7 -51 5 -4 -3 -13 0 -21 6 -12 8 -11 9 5 4 14 -5 11 0 -10 18
l-30 24 -9 -86 c-11 -105 5 -299 34 -421 84 -346 283 -543 534 -529 102 6 162
33 237 108 140 138 214 420 188 712 -33 382 -169 697 -338 782 -54 28 -138 38
-201 25z m-20 -24 c-30 -8 -64 -14 -75 -14 -27 1 73 27 105 27 14 0 0 -6 -30
-13z m195 0 c39 -17 11 -18 -35 0 -23 9 -28 14 -15 14 11 0 34 -6 50 -14z
m133 -103 c53 -63 63 -85 50 -103 -8 -11 -9 -11 -4 4 3 11 0 20 -10 24 -8 3
-13 12 -10 19 3 7 -24 43 -62 81 -37 37 -53 57 -35 45 17 -12 49 -43 71 -70z
m-508 48 c0 -5 -7 -13 -16 -18 -9 -5 -17 -13 -17 -18 -1 -5 -5 -8 -9 -7 -4 2
-20 -15 -34 -37 -15 -22 -29 -40 -31 -40 -7 0 7 21 50 78 37 49 57 64 57 42z
m-85 -153 c12 -3 7 -5 -11 -4 -23 1 -30 5 -27 15 4 8 8 10 12 4 3 -5 15 -12
26 -15z m686 -43 c11 -26 18 -49 16 -51 -2 -2 -14 19 -25 47 -11 27 -19 50
-16 50 3 0 14 -21 25 -46z m-594 24 c7 -1 14 -7 17 -15 5 -11 1 -11 -22 1 -15
7 -34 16 -42 20 -8 3 -4 4 10 0 14 -3 30 -6 37 -6z m73 -59 c17 -17 29 -33 27
-35 -2 -2 -19 12 -37 31 -19 19 -31 35 -28 35 4 0 21 -14 38 -31z m576 -115
c14 -47 24 -88 21 -90 -2 -2 -14 29 -25 70 -12 41 -25 82 -28 90 -3 9 -4 16 0
16 3 0 17 -39 32 -86z m-519 -46 c-2 -13 -4 -3 -4 22 0 25 2 35 4 23 2 -13 2
-33 0 -45z m553 -78 c0 -5 -5 -10 -11 -10 -5 0 -7 5 -4 10 3 6 8 10 11 10 2 0
4 -4 4 -10z m14 -85 c5 -50 1 -42 -14 29 -5 21 -5 34 0 30 5 -5 11 -31 14 -59z
m-931 -5 c-7 -28 -13 -25 -13 6 0 14 4 23 9 20 5 -3 7 -15 4 -26z m247 -5 c-7
-8 -20 -15 -29 -15 -11 1 -8 5 9 15 32 18 35 18 20 0z m-147 -22 c-7 -2 -19
-2 -25 0 -7 3 -2 5 12 5 14 0 19 -2 13 -5z m94 1 c-3 -3 -12 -4 -19 -1 -8 3
-5 6 6 6 11 1 17 -2 13 -5z m-205 -116 c3 -48 1 -85 -4 -82 -4 3 -8 44 -8 91
0 48 2 84 4 82 2 -2 6 -43 8 -91z m967 -17 c1 -13 -2 -21 -6 -18 -3 4 -7 35
-9 69 -2 60 -2 61 6 18 5 -25 9 -56 9 -69z m-962 -148 c-3 -10 -5 -2 -5 17 0
19 2 27 5 18 2 -10 2 -26 0 -35z m960 -100 c-7 -97 -30 -203 -42 -191 -2 2 2
26 10 52 8 27 15 80 16 120 1 72 6 106 16 106 3 0 3 -39 0 -87z m-939 -8 c0
-16 -2 -15 -8 5 -4 14 -8 36 -8 50 0 22 1 22 8 -5 4 -16 8 -39 8 -50z m20 -41
c4 2 7 -10 8 -27 0 -18 3 -48 7 -67 4 -22 -1 -14 -13 20 -16 47 -28 118 -13
82 2 -6 8 -10 11 -8z m42 -169 c0 -5 -5 -3 -10 5 -5 8 -10 20 -10 25 0 6 5 3
10 -5 5 -8 10 -19 10 -25z m826 -26 c-15 -34 -15 -34 -9 -4 7 35 13 48 20 42
2 -3 -3 -20 -11 -38z m-808 -14 c-3 -3 -9 2 -12 12 -6 14 -5 15 5 6 7 -7 10
-15 7 -18z m760 -96 c-34 -66 -126 -169 -150 -169 -7 0 2 10 20 21 29 19 37
31 33 52 -1 5 2 6 7 3 21 -13 96 101 86 130 -4 15 -4 16 4 5 8 -11 11 -9 17 8
4 13 9 20 12 17 3 -2 -10 -33 -29 -67z m-696 9 c6 2 8 -3 5 -11 -5 -14 27 -50
36 -41 3 3 4 -3 4 -13 -1 -10 8 -22 21 -28 12 -5 22 -13 22 -18 0 -4 5 -5 11
-2 6 4 13 -2 15 -12 7 -26 68 -54 85 -39 9 8 10 8 6 0 -9 -16 14 -33 47 -36
14 -1 26 -6 26 -11 0 -13 -47 0 -109 30 -59 28 -164 128 -194 184 -15 27 -15
30 -2 14 9 -11 21 -19 27 -17z m493 -205 c-31 -18 -217 -33 -202 -17 5 5 38 8
75 6 38 -1 82 4 102 12 49 19 61 18 25 -1z"/>
<path d="M4296 7060 c-59 -16 -108 -40 -81 -40 5 0 -4 -13 -20 -30 -16 -16
-34 -30 -39 -30 -6 1 5 14 24 30 19 17 29 30 23 30 -14 0 -113 -107 -136 -148
l-18 -32 48 0 c129 -1 235 -114 218 -234 -4 -28 -8 -59 -9 -68 -1 -10 -6 -21
-11 -25 -4 -5 -5 -1 -1 7 4 8 -1 4 -12 -10 -11 -13 -19 -27 -16 -31 4 -7 -22
-31 -46 -43 -8 -4 -4 2 10 14 28 24 25 23 -44 -9 -68 -32 -146 -27 -215 16
l-50 32 -8 -47 c-4 -26 -8 -139 -8 -252 1 -180 4 -217 24 -300 47 -190 128
-352 216 -429 173 -152 407 -117 549 83 108 150 156 339 156 611 0 434 -132
799 -324 897 -56 29 -144 32 -230 8z m158 1 c4 -5 -3 -7 -13 -4 -10 3 -29 -1
-41 -7 -12 -7 -20 -7 -16 -2 3 6 0 13 -6 15 -7 3 6 6 29 6 23 1 44 -3 47 -8z
m-97 -7 c-3 -3 -23 -8 -44 -10 -31 -3 -34 -2 -13 5 30 11 66 14 57 5z m184
-22 c55 -36 121 -107 148 -161 12 -23 19 -41 16 -41 -2 0 -14 18 -25 39 -23
46 -68 97 -82 93 -5 -1 -7 2 -4 6 7 12 -28 44 -37 35 -4 -3 -7 -1 -7 6 0 7
-19 21 -42 31 -24 11 -36 20 -27 20 8 0 35 -13 60 -28z m-281 -7 c-7 -8 -16
-12 -21 -9 -13 8 -1 24 18 24 13 0 13 -3 3 -15z m-137 -104 c-31 -47 -31 -54
-1 -63 17 -5 13 -6 -14 -5 -21 1 -38 4 -38 7 1 7 69 100 75 100 2 0 -8 -18
-22 -39z m90 -75 c9 -22 -5 -27 -20 -8 -8 9 -12 12 -9 5 4 -7 -1 -9 -14 -6
-30 8 -24 23 9 23 16 0 31 -6 34 -14z m60 -48 c5 1 6 -2 2 -8 -4 -6 -15 -4
-31 6 -30 20 -32 29 -1 12 12 -7 26 -11 30 -10z m471 -48 l7 -25 -15 25 c-9
14 -15 32 -15 40 0 13 1 13 8 0 5 -8 12 -26 15 -40z m-447 24 c-3 -4 -2 -16 4
-28 10 -20 9 -20 -5 -2 -14 17 -13 36 1 36 4 0 3 -3 0 -6z m38 -190 c-3 -18
-10 -36 -15 -39 -6 -4 -6 4 0 20 6 15 11 45 11 68 2 33 3 36 6 13 3 -16 2 -44
-2 -62z m474 -76 c2 -32 -15 -19 -17 14 -2 18 -6 35 -10 38 -4 3 -8 28 -8 55
l-1 50 18 -70 c9 -38 18 -78 18 -87z m-864 -48 c3 -5 1 -10 -4 -10 -6 0 -11 5
-11 10 0 6 2 10 4 10 3 0 8 -4 11 -10z m872 -12 c-3 -8 -6 -5 -6 6 -1 11 2 17
5 13 3 -3 4 -12 1 -19z m-841 -10 c4 -7 4 -10 -1 -6 -16 15 -45 -12 -41 -37 3
-14 1 -25 -3 -25 -4 0 -8 -41 -9 -92 -2 -113 -12 -131 -12 -22 0 93 10 185 19
179 4 -2 13 0 21 6 19 11 18 11 26 -3z m49 -18 c19 -8 19 -9 -2 -9 -12 -1 -25
4 -28 9 -7 12 2 12 30 0z m170 0 c-3 -5 -16 -10 -28 -9 -21 0 -21 1 -2 9 28
12 37 12 30 0z m-55 -14 c0 -2 -18 -6 -40 -8 -22 -2 -40 0 -40 4 0 5 18 8 40
8 22 0 40 -2 40 -4z m687 -68 c-2 -13 -4 -3 -4 22 0 25 2 35 4 23 2 -13 2 -33
0 -45z m10 -260 c-1 -46 -3 -11 -3 77 0 88 2 125 3 83 2 -42 2 -114 0 -160z
m-912 -14 c3 -76 2 -88 -5 -49 -9 57 -13 161 -5 153 3 -3 8 -50 10 -104z m902
-126 c-2 -13 -4 -5 -4 17 -1 22 1 32 4 23 2 -10 2 -28 0 -40z m-862 -87 c5 -9
4 -12 -3 -7 -13 8 -32 71 -31 101 0 11 6 -3 13 -30 7 -28 16 -57 21 -64z m847
17 c-6 -6 -12 -5 -17 3 -5 8 -4 10 3 5 8 -5 12 1 13 16 1 18 2 19 6 4 3 -10 0
-23 -5 -28z m-17 -78 c-8 -25 -12 -33 -10 -17 4 18 1 27 -7 27 -10 0 -9 3 1 9
8 5 10 14 6 21 -5 9 -4 11 3 6 7 -4 12 -1 13 6 0 7 2 8 5 3 2 -6 -3 -30 -11
-55z m-816 -10 c0 -9 -4 -8 -9 5 -5 11 -9 27 -9 35 0 9 4 8 9 -5 5 -11 9 -27
9 -35z m26 -67 c10 -27 25 -56 33 -65 10 -12 11 -18 3 -18 -11 0 -38 53 -55
108 -13 41 1 22 19 -25z m764 -12 c-6 -18 -14 -30 -17 -27 -2 3 1 19 8 36 16
40 23 33 9 -9z m-31 -66 c-14 -26 -23 -34 -15 -14 3 9 1 21 -4 26 -5 5 -1 9
10 9 16 0 18 -4 9 -21z m-670 -60 c-3 -3 -9 2 -12 12 -6 14 -5 15 5 6 7 -7 10
-15 7 -18z m634 -7 c-34 -53 -109 -123 -164 -153 -44 -24 -68 -30 -143 -33
-49 -2 -87 -1 -84 2 4 4 44 8 90 10 86 3 151 25 146 49 -1 6 6 11 16 11 9 -1
17 2 17 8 0 5 5 6 12 2 8 -5 9 -2 5 10 -4 9 -3 15 2 11 13 -7 66 39 91 80 12
19 24 35 27 35 3 0 -4 -14 -15 -32z m-607 -8 c-4 -6 -1 -19 6 -28 12 -16 12
-16 -5 0 -16 14 -15 38 0 38 3 0 2 -5 -1 -10z m73 -91 c12 -11 26 -18 30 -15
5 3 9 -1 9 -9 0 -12 -6 -11 -29 3 -16 9 -34 23 -40 30 -17 20 6 14 30 -9z m65
-39 c3 -11 1 -18 -4 -14 -5 3 -9 12 -9 20 0 20 7 17 13 -6z m47 -30 c8 -5 11
-10 5 -10 -5 0 -17 5 -25 10 -8 5 -10 10 -5 10 6 0 17 -5 25 -10z"/>
<path d="M6308 4860 c-9 -6 -42 -47 -74 -93 -151 -216 -381 -471 -506 -560
-187 -134 -299 -136 -553 -9 -147 73 -252 147 -418 295 -102 91 -129 104 -163
82 -13 -8 -24 -24 -24 -34 0 -49 219 -266 370 -366 113 -76 299 -167 390 -191
100 -27 219 -23 304 10 239 92 538 402 700 725 25 50 46 95 46 101 0 12 -37
50 -47 50 -5 0 -16 -5 -25 -10z"/>
</g>
</svg>
